Coordinates
version=1
nRows=14
nColumns=40
inDegrees=yes

Units are S.I. units (second, meters, Newtons, ...)
If the header above contains a line with 'inDegrees', this indicates whether rotational values are in degrees (yes) or radians (no).

endheader
time	pelvis_tilt	pelvis_list	pelvis_rotation	pelvis_tx	pelvis_ty	pelvis_tz	hip_flexion_r	hip_adduction_r	hip_rotation_r	knee_angle_r	knee_angle_r_beta	ankle_angle_r	subtalar_angle_r	mtp_angle_r	hip_flexion_l	hip_adduction_l	hip_rotation_l	knee_angle_l	knee_angle_l_beta	ankle_angle_l	subtalar_angle_l	mtp_angle_l	lumbar_extension	lumbar_bending	lumbar_rotation	arm_flex_r	arm_add_r	arm_rot_r	elbow_flex_r	pro_sup_r	wrist_flex_r	wrist_dev_r	arm_flex_l	arm_add_l	arm_rot_l	elbow_flex_l	pro_sup_l	wrist_flex_l	wrist_dev_l
      3.65000000	    -36.86062079	      7.37512084	      3.47489309	     -0.41745107	      0.70295247	     -0.93365797	     91.25989038	    -17.44202066	     15.51893532	     88.56570253	      1.54576311	     34.72743504	      0.00000000	      0.00000000	     89.02878900	     -6.53298940	     -0.82368982	     85.13802046	      1.48593878	     32.42778910	      0.00000000	      0.00000000	    -28.91914297	     -6.47142031	     -1.87473622	    -23.63251641	    -54.26434895	     32.90047364	     99.87109191	     88.10736184	      0.00000000	      0.00000000	     10.52559097	    -63.84931715	     67.87575119	    105.26298577	     88.05347821	      0.00000000	      0.00000000
      3.65500000	    -35.69411088	      7.65949410	      1.96084163	     -0.41310752	      0.70839243	     -0.92972098	     89.42463069	    -15.90406014	     15.57364921	     87.94123602	      1.53486412	     34.62017324	      0.00000000	      0.00000000	     87.04067336	     -8.14610433	     -1.32131625	     84.86001858	      1.48108673	     32.56805052	      0.00000000	      0.00000000	    -29.32504249	     -7.55656014	     -0.72814992	    -23.10739643	    -53.68904427	     33.14941203	     99.26764947	     88.10156570	      0.00000000	      0.00000000	     10.59214594	    -63.69539534	     67.71466375	    104.71721161	     88.03872711	      0.00000000	      0.00000000
      3.66000000	    -35.96888400	      7.50602735	      3.32584173	     -0.41309690	      0.71172068	     -0.93350106	     89.35191825	    -17.42956356	     15.44472847	     87.50802491	      1.52730316	     34.40031955	      0.00000000	      0.00000000	     87.04153771	     -6.35249834	     -0.99180577	     83.96690047	      1.46549888	     32.26722277	      0.00000000	      0.00000000	    -28.33915277	     -6.70167844	     -1.79470902	    -23.17000668	    -53.98375879	     33.11495048	     99.31645530	     88.10085767	      0.00000000	      0.00000000	     10.59500175	    -63.40394669	     67.82058255	    104.53046462	     88.04366916	      0.00000000	      0.00000000
      3.66500000	    -34.69795163	      7.85889411	      1.72085207	     -0.40864121	      0.71737623	     -0.92938441	     87.46229695	    -15.83189521	     15.62687746	     86.91201928	      1.51690090	     34.32510201	      0.00000000	      0.00000000	     84.88290895	     -8.03108334	     -1.62047090	     83.66901746	      1.46029984	     32.54463038	      0.00000000	      0.00000000	    -28.79068085	     -7.89762503	     -0.67336530	    -22.57185859	    -53.41024909	     33.51841412	     98.65124677	     88.10136954	      0.00000000	      0.00000000	     10.63057958	    -63.31065418	     67.63857260	    103.96889162	     88.03650139	      0.00000000	      0.00000000
      3.67000000	    -34.79971002	      7.66662223	      2.92655702	     -0.40813076	      0.72130956	     -0.93259718	     87.10277104	    -17.20725447	     15.32524334	     86.37694093	      1.50756202	     33.94973175	      0.00000000	      0.00000000	     84.65901763	     -6.47474760	     -1.23065710	     82.76559439	      1.44453213	     32.00189426	      0.00000000	      0.00000000	    -27.95446620	     -7.09500565	     -1.55616904	    -22.61727961	    -53.56608528	     33.42204364	     98.63422709	     88.09464496	      0.00000000	      0.00000000	     10.62982747	    -63.00073728	     67.64094147	    103.68456537	     88.03294478	      0.00000000	      0.00000000
      3.67500000	    -33.22456224	      7.88014899	      2.34819582	     -0.40279533	      0.72799308	     -0.93133365	     84.78733217	    -17.03373438	     15.15786807	     85.87695316	      1.49883558	     33.88116760	      0.00000000	      0.00000000	     82.18432740	     -6.87326003	     -1.63052633	     82.29911782	      1.43639058	     32.03965129	      0.00000000	      0.00000000	    -28.78079907	     -7.50927915	     -1.26267445	    -22.23370373	    -53.12297606	     33.55127844	     97.93824889	     88.09444214	      0.00000000	      0.00000000	     10.61989838	    -62.61130113	     67.46844323	    102.91470216	     88.01782973	      0.00000000	      0.00000000
      3.68000000	    -33.14437652	      7.81459361	      3.22348372	     -0.40177960	      0.73222691	     -0.93381484	     84.23353369	    -18.09949701	     14.92298615	     85.31113705	      1.48896023	     33.59154621	      0.00000000	      0.00000000	     81.70741712	     -5.70610399	     -1.41464300	     81.45330181	      1.42162830	     31.66130277	      0.00000000	      0.00000000	    -28.06453527	     -6.99847747	     -1.94380543	    -22.26147914	    -53.21327053	     33.48720695	     97.86937667	     88.09278571	      0.00000000	      0.00000000	     10.58166883	    -62.30570104	     67.42701673	    102.61521162	     88.01501190	      0.00000000	      0.00000000
      3.68500000	    -32.57880514	      7.66306848	      3.02787060	     -0.39947669	      0.73713977	     -0.93327750	     83.04546094	    -17.93750007	     14.60506612	     84.69987174	      1.47829164	     33.23987711	      0.00000000	      0.00000000	     80.65389039	     -5.86696732	     -1.34465696	     80.89837856	      1.41194307	     31.33679036	      0.00000000	      0.00000000	    -27.74210596	     -6.96360148	     -1.74328909	    -22.13261532	    -53.06732068	     33.52600523	     97.52228062	     88.09086072	      0.00000000	      0.00000000	     10.49897890	    -62.08327734	     67.27951613	    102.20211382	     88.00627148	      0.00000000	      0.00000000
      3.69000000	    -31.99377224	      7.66041209	      2.71152431	     -0.39696143	      0.74226055	     -0.93240579	     81.86706889	    -17.67018902	     14.45818481	     84.04757337	      1.46690688	     32.91839203	      0.00000000	      0.00000000	     79.47197576	     -6.14322690	     -1.47940961	     80.27236253	      1.40101702	     31.02202240	      0.00000000	      0.00000000	    -27.42718185	     -7.15415013	     -1.47965926	    -21.99296894	    -52.82394521	     33.58174196	     97.20599715	     88.08879872	      0.00000000	      0.00000000	     10.44052099	    -61.92768128	     67.13654962	    101.79275946	     88.00077928	      0.00000000	      0.00000000
      3.69500000	    -31.30125398	      7.66765282	      2.78157655	     -0.39430719	      0.74772653	     -0.93268902	     80.57307998	    -17.94438383	     14.21201132	     83.42755456	      1.45608551	     32.55760479	      0.00000000	      0.00000000	     78.18322715	     -5.91928612	     -1.50503867	     79.58078047	      1.38894664	     30.66793842	      0.00000000	      0.00000000	    -27.24162937	     -7.11833710	     -1.57314114	    -21.89809647	    -52.64788782	     33.58024088	     96.88604944	     88.08582701	      0.00000000	      0.00000000	     10.41181169	    -61.70419943	     67.00102595	    101.33800501	     87.99893178	      0.00000000	      0.00000000
      3.70000000	    -30.18751600	      7.67246142	      2.84900668	     -0.39049128	      0.75413282	     -0.93296267	     78.70042666	    -18.34139177	     13.79036655	     82.82462010	      1.44556232	     32.23412603	      0.00000000	      0.00000000	     76.36224784	     -5.67768489	     -1.57531639	     78.90208417	      1.37710116	     30.32967422	      0.00000000	      0.00000000	    -27.49492392	     -7.03725019	     -1.69632632	    -21.77909722	    -52.41915549	     33.62371666	     96.41934915	     88.08464253	      0.00000000	      0.00000000	     10.28178955	    -61.32978674	     66.85255305	    100.66392584	     87.99370909	      0.00000000	      0.00000000
      3.70500000	    -29.89259875	      7.55191479	      2.82072531	     -0.38853276	      0.75874202	     -0.93285809	     77.83200252	    -18.33523766	     13.50380917	     82.16313370	      1.43401721	     31.88882768	      0.00000000	      0.00000000	     75.59558821	     -5.69012460	     -1.51531530	     78.25516594	      1.36581030	     29.96599639	      0.00000000	      0.00000000	    -26.76536563	     -6.99139674	     -1.59626968	    -21.83515754	    -52.32275050	     33.65965853	     96.27753824	     88.08462665	      0.00000000	      0.00000000	     10.11380480	    -61.23571082	     66.74438479	    100.42814814	     87.99148531	      0.00000000	      0.00000000
      3.71000000	    -28.61926435	      7.51020754	      2.93121603	     -0.38465994	      0.76578275	     -0.93335370	     75.73533497	    -18.82636049	     12.93938445	     81.48402428	      1.42216451	     31.47237314	      0.00000000	      0.00000000	     73.61375896	     -5.40221261	     -1.48292219	     77.52416747	      1.35305197	     29.51090998	      0.00000000	      0.00000000	    -27.18200139	     -6.79198665	     -1.74589997	    -21.73751191	    -52.15677598	     33.67508490	     95.90270248	     88.08691140	      0.00000000	      0.00000000	      9.89281529	    -60.84194355	     66.52204734	     99.60716122	     87.98582613	      0.00000000	      0.00000000
      3.71500000	    -27.81557651	      7.01167418	      2.87677035	     -0.38161833	      0.77196385	     -0.93282729	     73.96718696	    -18.70733183	     12.08703602	     80.63996079	      1.40743282	     31.01907641	      0.00000000	      0.00000000	     72.28463301	     -5.66592782	     -1.11759947	     76.83389607	      1.34100446	     29.03182847	      0.00000000	      0.00000000	    -26.97719534	     -6.35518996	     -1.54266142	    -21.70174668	    -52.00230735	     33.64802774	     95.67540911	     88.08369789	      0.00000000	      0.00000000	      9.69663503	    -60.49699974	     66.22745581	     99.14060694	     87.97581971	      0.00000000	      0.00000000
